Coordinates
version=1
nRows=29
nColumns=24
inDegrees=yes

Units are S.I. units (second, meters, Newtons, ...)
Angles are in degrees.

endheader
time	pelvis_tilt	pelvis_list	pelvis_rotation	pelvis_tx	pelvis_ty	pelvis_tz	hip_flexion_r	hip_adduction_r	hip_rotation_r	knee_angle_r	ankle_angle_r	subtalar_angle_r	mtp_angle_r	hip_flexion_l	hip_adduction_l	hip_rotation_l	knee_angle_l	ankle_angle_l	subtalar_angle_l	mtp_angle_l	lumbar_extension	lumbar_bending	lumbar_rotation
      0.44600000	     -2.32398137	      4.73562251	     -2.14345401	     -0.77145824	      1.05478187	      0.32368557	     25.35630155	     -1.52000544	     -4.76727612	     -6.66574275	      1.78058033	     -5.30884766	     -0.02903400	     -9.09178931	      8.79086723	      2.18163606	     -4.62656279	      8.13958797	     -8.00919638	      0.04235051	      5.54980040	     -1.88811082	     -1.32730690
      0.45016667	     -2.35882007	      4.76227240	     -2.13496617	     -0.76600254	      1.05417600	      0.32392935	     25.27095128	     -1.48492617	     -4.66688139	     -6.49816827	      1.69992456	     -5.14730380	     -0.02417997	     -9.12941757	      8.81520780	      2.18129224	     -5.12586842	      8.12646871	     -8.05425235	      0.03755303	      5.55815531	     -1.93614830	     -1.36527846
      0.45433333	     -2.38567943	      4.75069410	     -2.15547850	     -0.76036591	      1.05361151	      0.32419938	     25.16867655	     -1.40254039	     -4.55778668	     -6.40918461	      1.60599062	     -4.98225489	     -0.01776839	     -9.17889616	      8.80006440	      2.16098082	     -5.63445029	      8.17484049	     -8.09631814	      0.03448459	      5.59868840	     -1.95003325	     -1.41286148
      0.45850000	     -2.39869378	      4.73295157	     -2.18459100	     -0.75469378	      1.05308676	      0.32443077	     25.05949674	     -1.31782530	     -4.44180362	     -6.40743881	      1.51367906	     -4.84925811	     -0.01112475	     -9.22546682	      8.78064744	      2.12846053	     -6.18616138	      8.24158109	     -8.11775646	      0.03369525	      5.65109632	     -1.92237234	     -1.45805279
      0.46266667	     -2.39689457	      4.69377001	     -2.33992054	     -0.74883469	      1.05254805	      0.32486097	     24.94496907	     -1.16051323	     -4.20940961	     -6.47095109	      1.20626741	     -4.54009635	      0.02122586	     -9.28738583	      8.75312813	      1.89126617	     -6.75175996	      8.58745081	     -7.93617846	      0.03825789	      5.69850033	     -1.86467861	     -1.65547315
      0.46683333	     -2.39344432	      4.67313272	     -2.31893638	     -0.74314135	      1.05211682	      0.32500908	     24.81822622	     -1.10322800	     -4.09557178	     -6.60284355	      1.16776460	     -4.50612889	      0.02865300	     -9.29599567	      8.71704883	      1.87765288	     -7.41881809	      8.58349398	     -7.90453441	      0.03974096	      5.74606153	     -1.83121303	     -1.67336651
      0.47100000	     -2.37938313	      4.61572068	     -2.41406191	     -0.73728979	      1.05169482	      0.32566972	     24.65466833	     -0.92599465	     -3.69157006	     -6.71908395	      0.84939132	     -4.65818192	      0.12127592	     -9.28235972	      8.61652089	      1.42083264	     -8.16911901	      8.98214457	     -6.97680100	      0.08573889	      5.79469175	     -1.86674801	     -1.86291955
      0.47516667	     -2.35922112	      4.59677380	     -2.40552472	     -0.73155840	      1.05132880	      0.32578283	     24.52415083	     -0.87949232	     -3.57928932	     -6.97239262	      0.79171192	     -4.64644826	      0.12875631	     -9.25929534	      8.57964509	      1.39251306	     -8.93626720	      8.95625041	     -6.98100684	      0.08933840	      5.83090572	     -1.78121205	     -1.87237904
      0.47933333	     -2.37571463	      4.54728897	     -2.52580376	     -0.72567258	      1.05090736	      0.32649162	     24.40578380	     -0.70331990	     -3.12186152	     -7.18384741	      0.33053058	     -4.92880244	      0.22374230	     -9.15319786	      8.47935358	      0.87622028	     -9.79748583	      9.17063819	     -6.22284507	      0.16983417	      5.86960035	     -1.76199000	     -1.90039230
      0.48350000	     -2.33184634	      4.51733293	     -2.51214924	     -0.71989191	      1.05065353	      0.32657812	     24.24539165	     -0.66029336	     -3.01616531	     -7.50415260	      0.27216319	     -4.92485783	      0.23267855	     -9.09861677	      8.42029051	      0.82248950	    -10.67915586	      9.12563466	     -6.21109166	      0.17739536	      5.90861623	     -1.66514640	     -1.90533521
      0.48766667	     -2.33774007	      4.44518423	     -2.60781438	     -0.71400286	      1.05033712	      0.32740205	     24.10680364	     -0.46467399	     -2.57914040	     -7.77260582	     -0.14407746	     -5.47832463	      0.38327686	     -8.92582166	      8.25888767	      0.19304404	    -11.69947663	      9.38487512	     -5.08278698	      0.36252151	      5.88199062	     -1.59036968	     -1.86964806
      0.49183333	     -2.26710290	      4.40447135	     -2.60120154	     -0.70821524	      1.05020321	      0.32749557	     23.91534836	     -0.42046715	     -2.46730975	     -8.13176286	     -0.23605753	     -5.44120281	      0.39267592	     -8.83397073	      8.17709105	      0.10454361	    -12.71110221	      9.29629005	     -5.07796311	      0.37294755	      5.93409913	     -1.49953738	     -1.87263691
      0.49600000	     -2.28264838	      4.32662275	     -2.72726644	     -0.70227367	      1.04994038	      0.32827966	     23.79630574	     -0.22672359	     -2.08640011	     -8.44239801	     -0.77955012	     -5.62116089	      0.48790580	     -8.59568300	      8.00651449	     -0.53067155	    -13.81631931	      9.13057032	     -4.18289691	      0.52743269	      5.92426098	     -1.46260841	     -1.85415290
      0.50016667	     -2.27114103	      4.24350084	     -2.77533741	     -0.69641590	      1.04978732	      0.32887873	     23.64519752	     -0.07479745	     -1.83339908	     -8.78712500	     -1.06174258	     -6.03643097	      0.61254106	     -8.34716421	      7.81870304	     -1.00104470	    -15.01223715	      9.15048657	     -3.39157675	      0.75406146	      5.93402235	     -1.33640437	     -1.80271863
      0.50433333	     -2.22686292	      4.15422297	     -2.77864082	     -0.69056591	      1.04975113	      0.32913015	     23.47112206	      0.02597208	     -1.80331657	     -9.17842348	     -1.18384767	     -6.03468918	      0.63559721	     -8.11074035	      7.64530984	     -1.29477193	    -16.24497765	      9.00643945	     -3.30657941	      0.79681141	      5.87509688	     -1.21305960	     -1.80986333
      0.50850000	     -2.18561042	      4.09342000	     -2.91125346	     -0.68478918	      1.04967304	      0.32972235	     23.32767773	      0.15973631	     -1.59314771	     -9.58924257	     -1.56157487	     -6.20518731	      0.70703443	     -7.82651957	      7.49038596	     -1.80775882	    -17.52348542	      8.62919652	     -2.50623140	      0.96129882	      5.88424205	     -1.06107622	     -1.79878789
      0.51266667	     -2.17738409	      3.98584989	     -2.96369509	     -0.67895637	      1.04963266	      0.33034396	     23.17808071	      0.32342915	     -1.41523662	     -9.95906967	     -1.80620361	     -6.49790135	      0.78956179	     -7.46488380	      7.24571550	     -2.30140308	    -18.91002346	      8.42885705	     -1.80777236	      1.17419673	      5.88782714	     -0.91795089	     -1.75647173
      0.51683333	     -2.12240498	      3.83072453	     -2.94186575	     -0.67307468	      1.04976132	      0.33072410	     22.95011641	      0.48009635	     -1.37735741	    -10.29860772	     -1.91673279	     -6.50217921	      0.81528299	     -7.12821041	      6.94941115	     -2.65529050	    -20.35322541	      8.22241399	     -1.64765109	      1.24089558	      5.84215186	     -0.82183110	     -1.74453873
      0.52100000	     -2.09062681	      3.69493088	     -3.01277244	     -0.66724024	      1.04982859	      0.33150918	     22.75245186	      0.67971096	     -1.13908580	    -10.62990029	     -2.22756403	     -6.83271956	      0.91763699	     -6.72854306	      6.64061044	     -3.16894386	    -21.83243809	      7.72303151	     -0.61915139	      1.56019616	      5.94223990	     -0.69324368	     -1.66296438
      0.52516667	     -2.06147451	      3.56011971	     -3.06822827	     -0.66150348	      1.04991425	      0.33210309	     22.58133478	      0.85005480	     -1.05806622	    -11.01015314	     -2.40593933	     -7.06095346	      1.02194748	     -6.28123074	      6.34185244	     -3.62046770	    -23.38703912	      7.31798062	     -0.02530222	      1.90426677	      5.90890008	     -0.49315849	     -1.60115017
      0.52933333	     -2.00603941	      3.42057259	     -3.12650647	     -0.65582708	      1.05005481	      0.33258987	     22.39313743	      1.00701698	     -1.05551400	    -11.41554016	     -2.51036298	     -7.12209982	      1.08935538	     -5.83018088	      6.04481830	     -4.02036328	    -24.97907065	      6.84721854	      0.35300658	      2.13689317	      5.80841468	     -0.24404369	     -1.58839197
      0.53350000	     -2.05849436	      3.25543828	     -3.22981584	     -0.65002408	      1.05004980	      0.33343050	     22.29954157	      1.24347429	     -0.96925097	    -11.78721734	     -2.72622335	     -7.59718865	      1.53883574	     -5.23770635	      5.67217317	     -4.56527809	    -26.64530324	      6.55425523	      1.14222299	      3.86008443	      5.95364532	     -0.06842368	     -1.32597097
      0.53766667	     -1.97156105	      3.07141534	     -3.21213544	     -0.64440697	      1.05032042	      0.33381051	     22.03389400	      1.40273260	     -0.98877989	    -12.11765210	     -2.71799739	     -7.40499762	      1.58695659	     -4.75384430	      5.30490408	     -4.82711957	    -28.32954064	      5.80824982	      1.32849060	      4.02204790	      5.78790559	      0.19529198	     -1.37167923
      0.54183333	     -1.87735921	      2.84050401	     -3.26071526	     -0.63866937	      1.05061599	      0.33433922	     21.75731702	      1.64120963	     -1.09285935	    -12.45424931	     -2.72240951	     -7.29784124	      1.60729247	     -4.27084665	      4.87745481	     -5.21733871	    -30.04777514	      5.39581901	      1.43160357	      4.09068812	      5.68818507	      0.34575536	     -1.38323481
      0.54600000	     -1.80695185	      2.65090450	     -3.27509769	     -0.63314668	      1.05086685	      0.33475261	     21.51865937	      1.81202110	     -1.16520943	    -12.80263657	     -2.64105222	     -7.20330912	      1.65537020	     -3.71131197	      4.49440213	     -5.46953810	    -31.78652728	      4.44558123	      1.88393762	      4.27730564	      5.59164422	      0.71816777	     -1.39695459
      0.55016667	     -1.74635013	      2.41443431	     -3.31172437	     -0.62746550	      1.05113478	      0.33527467	     21.26674414	      2.04750602	     -1.31995827	    -13.12413178	     -2.54219915	     -7.10326125	      1.71859163	     -3.13888884	      4.04638671	     -5.78193136	    -33.54667622	      3.71601472	      2.20729341	      4.54615337	      5.57810141	      0.95252894	     -1.35949559
      0.55433333	     -1.66723392	      2.16400339	     -3.37739125	     -0.62189321	      1.05143078	      0.33586348	     20.98666815	      2.30774639	     -1.38073476	    -13.40897291	     -2.51520757	     -6.98420867	      1.73979359	     -2.56019548	      3.58083279	     -6.09629608	    -35.34988729	      3.32938093	      2.29246770	      4.62649626	      5.43570105	      1.15377614	     -1.36213989
      0.55850000	     -1.61022571	      1.92633095	     -3.37200849	     -0.61636988	      1.05172576	      0.33618069	     20.72915366	      2.50908345	     -1.59518578	    -13.70791603	     -2.29995534	     -6.84778650	      1.80017712	     -1.92818066	      3.14314438	     -6.25235452	    -37.13839210	      2.40934129	      2.64103341	      4.88069824	      5.40022020	      1.56169214	     -1.31510052
      0.56266667	     -1.52267193	      1.66881798	     -3.46151539	     -0.61085955	      1.05205080	      0.33683970	     20.42521561	      2.78427074	     -1.65721965	    -13.96095484	     -2.25774150	     -6.70637896	      1.81853402	     -1.32799334	      2.66404018	     -6.53155544	    -38.94954681	      2.07877466	      2.68594034	      4.94645480	      5.26953490	      1.73719968	     -1.31022946
